<svg width="32" height="32" viewBox="0 0 24 24" fill="none" xmlns="http://www.w3.org/2000/svg"><path d="M7.2 4H16.8C17.9201 4 18.4802 4 18.908 4.21799 19.2843 4.40973 19.5903 4.71569 19.782 5.09202 20 5.51984 20 6.07989 20 7.2V16.8C20 17.9201 20 18.4802 19.782 18.908 19.5903 19.2843 19.2843 19.5903 18.908 19.782 18.4802 20 17.9201 20 16.8 20H7.2C6.0799 20 5.51984 20 5.09202 19.782 4.71569 19.5903 4.40973 19.2843 4.21799 18.908 4 18.4802 4 17.9201 4 16.8V7.2C4 6.0799 4 5.51984 4.21799 5.09202 4.40973 4.71569 4.71569 4.40973 5.09202 4.21799 5.51984 4 6.0799 4 7.2 4Z" stroke="#fff" stroke-width="2" stroke-linecap="round" stroke-linejoin="round"/><path d="M4 15h2.67452c.48918 0 .73377 0 .96394.0553.20408.049.39917.1298.57811.2394.20183.1237.37479.2967.72069.6426l.12548.1254c.34591.3459.51886.5189.72069.6426.17894.1096.37407.1904.57807.2394.2302.0553.4748.0553.964.0553h1.349c.4892 0 .7338 0 .964-.0553.204-.049.3991-.1298.5781-.2394.2018-.1237.3748-.2967.7207-.6426l.1254-.1254c.3459-.3459.5189-.5189.7207-.6426.179-.1096.3741-.1904.5781-.2394.2302-.0553.4748-.0553.964-.0553h2.6745V16.8C20 17.9201 20 18.4802 19.782 18.908 19.5903 19.2843 19.2843 19.5903 18.908 19.782 18.4802 20 17.9201 20 16.8 20H7.2C6.0799 20 5.51984 20 5.09202 19.782 4.71569 19.5903 4.40973 19.2843 4.21799 18.908 4 18.4802 4 17.9201 4 16.8V14Z" stroke="#fff" stroke-width="2" stroke-linecap="round" stroke-linejoin="round" fill="#fff"/></svg>