<svg width="32" height="32" viewBox="0 0 24 24" fill="none" xmlns="http://www.w3.org/2000/svg"><path d="M14 5.6C14 5.03995 14 4.75992 14.109 4.54601 14.2049 4.35785 14.3578 4.20487 14.546 4.10899 14.7599 4 15.0399 4 15.6 4H18.4C18.9601 4 19.2401 4 19.454 4.10899 19.6422 4.20487 19.7951 4.35785 19.891 4.54601 20 4.75992 20 5.03995 20 5.6V6.4C20 6.96005 20 7.24008 19.891 7.45399 19.7951 7.64215 19.6422 7.79513 19.454 7.89101 19.2401 8 18.9601 8 18.4 8H15.6C15.0399 8 14.7599 8 14.546 7.89101 14.3578 7.79513 14.2049 7.64215 14.109 7.45399 14 7.24008 14 6.96005 14 6.4v-.8Z" stroke="#fff" stroke-width="2" stroke-linecap="round" stroke-linejoin="round"/><path d="M4 5.6C4 5.03995 4 4.75992 4.10899 4.54601 4.20487 4.35785 4.35785 4.20487 4.54601 4.10899 4.75992 4 5.03995 4 5.6 4H8.4C8.96005 4 9.24008 4 9.45399 4.10899 9.64215 4.20487 9.79513 4.35785 9.89101 4.54601 10 4.75992 10 5.03995 10 5.6V10.4c0 .56005 0 .84008-.10899 1.05399-.09588.18816-.24886.34114-.43702.43702-.21391.10899-.49394.10899-1.05399.10899h-2.8c-.56005 0-.84008 0-1.05399-.10899-.18816-.09588-.34114-.24886-.43702-.43702-.10899-.21391-.10899-.49394-.10899-1.05399v-4.8Z" stroke="#fff" stroke-width="2" stroke-linecap="round" stroke-linejoin="round"/><path d="M4 17.6c0-.5601 0-.8401.10899-1.054.09588-.1882.24886-.3411.43702-.437.21391-.109.49394-.109 1.05399-.109h2.8c.56005 0 .84008 0 1.05399.109.18816.0959.34114.2488.43702.437.10899.2139.10899.4939.10899 1.054v.8c0 .5601 0 .8401-.10899 1.054-.09588.1882-.24886.3411-.43702.437-.21391.109-.49394.109-1.05399.109h-2.8c-.56005 0-.84008 0-1.05399-.109-.18816-.0959-.34114-.2488-.43702-.437-.10899-.2139-.10899-.4939-.10899-1.054v-.8Z" stroke="#fff" stroke-width="2" stroke-linecap="round" stroke-linejoin="round"/><path d="M14 13.6c0-.5601 0-.8401.109-1.054.0959-.1882.2488-.3411.437-.437.2139-.109.4939-.109 1.054-.109h2.8c.5601 0 .8401 0 1.054.109.1882.0959.3411.2488.437.437.109.2139.109.4939.109 1.054v4.8c0 .5601 0 .8401-.109 1.054-.0959.1882-.2488.3411-.437.437-.2139.109-.4939.109-1.054.109h-2.8c-.5601 0-.8401 0-1.054-.109-.1882-.0959-.3411-.2488-.437-.437-.109-.2139-.109-.4939-.109-1.054v-4.8z" stroke="#fff" stroke-width="2" stroke-linecap="round" stroke-linejoin="round"/></svg>