<svg width="16" height="32" viewBox="6 6 12 12" fill="none" xmlns="http://www.w3.org/2000/svg"><path d="m16 7.34314v-2.14314c0-1.1201 0-1.68016-.218-2.10798-.1917-.37633-.4977-.68229-.87402-.87403-.42782-.21799-.98787-.21799-2.10798-.21799h-1.6c-1.1201 0-1.68016 0-2.10798.21799-.37633.19174-.68229.4977-.87403.87403-.21799.42782-.21799.98787-.21799 2.10798v13.6c0 1.1201 0 1.6802.21799 2.108.19174.3763.4977.6823.87403.874.42782.218.98787.218 2.10798.218h1.6c1.12011 0 1.68016 0 2.10798-.218.37632-.1917.68232-.4977.87402-.874.0106-.0208.0207-.042.0303-.0635m.1877-13.50136v11.45686c0 1.0656 0 1.6243-.1877 2.0445" stroke="#fff" stroke-width="2" stroke-linecap="round" stroke-linejoin="round" fill="#fff"/></svg>