<svg width="32" height="32" viewBox="0 0 24 24" fill="none" xmlns="http://www.w3.org/2000/svg"><path d="M8.5 3H11.5118C12.2455 3 12.6124 3 12.9577 3.08289 13.2638 3.15638 13.5564 3.27759 13.8249 3.44208 14.1276 3.6276 14.387 3.88703 14.9059 4.40589L20.5 10" stroke="#fff" stroke-width="2" stroke-linecap="round" stroke-linejoin="round"/><path d="M9.51178 6H8.3C6.61984 6 5.77976 6 5.13803 6.32698 4.57354 6.6146 4.1146 7.07354 3.82698 7.63803 3.5 8.27976 3.5 9.11984 3.5 10.8V12.0118C3.5 12.7455 3.5 13.1124 3.58289 13.4577 3.65638 13.7638 3.77759 14.0564 3.94208 14.3249 4.1276 14.6276 4.38703 14.887 4.90589 15.4059L8.10589 18.6059C9.29394 19.7939 9.88796 20.388 10.5729 20.6105 11.1755 20.8063 11.8245 20.8063 12.4271 20.6105 13.112 20.388 13.7061 19.7939 14.8941 18.6059L16.1059 17.3941C17.2939 16.2061 17.888 15.612 18.1105 14.9271 18.3063 14.3245 18.3063 13.6755 18.1105 13.0729 17.888 12.388 17.2939 11.7939 16.1059 10.6059L12.9059 7.40589C12.387 6.88703 12.1276 6.6276 11.8249 6.44208 11.5564 6.27759 11.2638 6.15638 10.9577 6.08289 10.6124 6 10.2455 6 9.51178 6Z" stroke="#fff" stroke-width="2" stroke-linecap="round" stroke-linejoin="round" fill="#fff"/></svg>