<svg width="32" height="32" viewBox="0 0 24 24" fill="none" xmlns="http://www.w3.org/2000/svg"><path d="M4 6H20M16 6 15.7294 5.18807C15.4671 4.40125 15.3359 4.00784 15.0927 3.71698 14.8779 3.46013 14.6021 3.26132 14.2905 3.13878 13.9376 3 13.523 3 12.6936 3H11.3064C10.477 3 10.0624 3 9.70951 3.13878 9.39792 3.26132 9.12208 3.46013 8.90729 3.71698 8.66405 4.00784 8.53292 4.40125 8.27064 5.18807L8 6" stroke="#fff" stroke-width="2" stroke-linecap="round" stroke-linejoin="round"/><path d="M18 6V16.2C18 17.8802 18 18.7202 17.673 19.362 17.3854 19.9265 16.9265 20.3854 16.362 20.673 15.7202 21 14.8802 21 13.2 21H10.8C9.11984 21 8.27976 21 7.63803 20.673 7.07354 20.3854 6.6146 19.9265 6.32698 19.362 6 18.7202 6 17.8802 6 16.2V6" stroke="#fff" stroke-width="2" stroke-linecap="round" stroke-linejoin="round" fill="#fff"/></svg>